# xmcd
#
# Track frame offsets:
#	150
#	18908
#	34062
#	52107
#	71899
#	87006
#	104184
#	115626
#	128924
#	142580
#	153239
#	174791
#	192711
#	208674
#	224830
#	241457
#	258297
#	269848
#	283046
#	295985
#	310319
#	326777
#
# Disc length: 4584 seconds
#
# Revision: 3
# Processed by: cddbd v1.5.2PL0 Copyright (c) Steve Scherf et al.
# Submitted via: audiograbber 1.83.01
#
DISCID=5c11e616
DTITLE=Various Artist - ZVS-015 80's Indie Pop
DYEAR=1900
DGENRE=Blues
TTITLE0=Deacon Blue - Dignity
TTITLE1=Deacon Blue - Chocolate Girl
TTITLE2=Deacon Blue - Fergus Sings The Blues
TTITLE3=Deacon Blue - Real Gone Kid
TTITLE4=Deacon Blue - Wages Day
TTITLE5=Housemartins,The - Caravan Of Love
TTITLE6=Housemartins,The - Happy Hour
TTITLE7=Housmartins,The - Five Get Over Excited
TTITLE8=Housemartins,The - Me And The Farmer
TTITLE9=Housemartins,The - Sheep
TTITLE10=Style Council,The - Yoo're The Best Thing
TTITLE11=Style Council,The - Long Hot Summer
TTITLE12=Style Council,The - Speak Like A Child
TTITLE13=Style Council,The - Shout To The Top
TTITLE14=Style Counciil,The - Walls Come Tumbling Down
TTITLE15=Smiths,The - Heaven Knows I'm Miserable Now
TTITLE16=Smiths,The - Panic
TTITLE17=Smiths,The - Shiela Take A Bow
TTITLE18=Smiths,The - This Charming Man
TTITLE19=Smiths,The - Ask
TTITLE20=Cure,The - Friday I'm In Love
TTITLE21=Cure,The - The Love Cats
EXTD=
EXTT0=
EXTT1=
EXTT2=
EXTT3=
EXTT4=
EXTT5=
EXTT6=
EXTT7=
EXTT8=
EXTT9=
EXTT10=
EXTT11=
EXTT12=
EXTT13=
EXTT14=
EXTT15=
EXTT16=
EXTT17=
EXTT18=
EXTT19=
EXTT20=
EXTT21=
PLAYORDER=
